# xmcd
#
# Track frame offsets: 
#        150
#        22797
#        38742
#        54867
#        75113
#        95138
#        113550
#        130080
#        144720
#        165762
#        184534
#        206625
#        226392
#        243825
#        264225
#        283759
#        303503
#        315450
#
# Disc length: 4510 seconds
#
# Revision: 4
# Processed by: cddbd v1.5.2PL0 Copyright (c) Steve Scherf et al.
# Submitted via: ExactAudioCopy v1.0b3
#
DISCID=d8119c12
DTITLE=Various Artist - 愛程集 Love Journey - CD2
DYEAR=2002
DGENRE=Pop
TTITLE0=張信哲 - 過火
TTITLE1=曾路得 - 那一天
TTITLE2=郭小霖 - 迷惘
TTITLE3=彭家麗/蘇永康 - 從不喜歡孤單一個
TTITLE4=甄妮 - 再度孤獨
TTITLE5=盧業媚 - 為什麼
TTITLE6=徐小鳳 - 無奈
TTITLE7=曾路得/兪靜 - 天各一方
TTITLE8=林志炫 - 認錯
TTITLE9=彭家麗 - 是不是這樣的夜晚你才會這樣的想起我
TTITLE10=林憶蓮 - 綠水清風
TTITLE11=庚澄慶 - 熱情的沙漠
TTITLE12=林志美 - 雨夜鋼琴(Blue Mix)
TTITLE13=何家勁 - 也許
TTITLE14=張智霖 - 多謝關心
TTITLE15=林憶蓮 - 激情(Overturn)
TTITLE16=威鎮樂隊 - 陽光空氣
TTITLE17=林憶蓮/BLUE JEANS - 下雨天 
EXTD=YEAR: 2002
EXTT0=
EXTT1=
EXTT2=
EXTT3=
EXTT4=
EXTT5=
EXTT6=
EXTT7=
EXTT8=
EXTT9=
EXTT10=
EXTT11=
EXTT12=
EXTT13=
EXTT14=
EXTT15=
EXTT16=
EXTT17=
PLAYORDER=
